<?xml version="1.0" encoding="UTF-8"?>
<svg width="351px" height="244px" viewBox="0 0 351 244" version="1.1" xmlns="http://www.w3.org/2000/svg" xmlns:xlink="http://www.w3.org/1999/xlink">
    <!-- Generator: Sketch 47.1 (45422) - http://www.bohemiancoding.com/sketch -->
    <title>Artboard 2</title>
    <desc>Created with Sketch.</desc>
    <defs></defs>
    <g id="Page-1" stroke="none" stroke-width="1" fill="none" fill-rule="evenodd">
        <g id="Artboard-2">
            <path d="M16.1435698,198.628168 C26.2513733,207.628168 26.9762625,221.008527 30.1271415,218.628168 C31.3796651,217.681938 67.3425475,223.339578 68.6050076,222.242138 C72.3785555,218.961843 67.7469686,217.419308 62.7004763,215.449752 C54.8770384,212.396404 41.7120059,211.084851 40.5195049,209.594224 C39.3227194,208.098243 27.0357662,198.246437 27.0357662,189.628168 C27.0357662,178.327396 36.2348302,157.58445 35.0357662,149.628168 C33.5685322,139.892468 24.4670953,133.628168 22.0357662,133.628168 C17.6174882,133.628168 14.0357662,153.999212 14.0357662,179.128168 C14.0357662,204.257124 12.0267897,194.962582 16.1435698,198.628168 Z" id="Oval-6" stroke="#660303" stroke-width="2" fill="#C64444" transform="translate(41.765143, 178.006110) rotate(54.000000) translate(-41.765143, -178.006110) "></path>
            <path d="M302.190125,194.837739 C312.297928,203.837739 317.931442,221.218098 321.082321,218.837739 C323.765426,216.810764 341.224229,218.730525 337.544953,214.13143 C336.939334,213.374406 320.870497,209.562541 319.981426,207.45955 C317.759778,202.204507 313.082321,188.878119 313.082321,185.837739 C313.082321,174.536967 322.281385,153.794021 321.082321,145.837739 C319.615087,136.102039 310.51365,129.837739 308.082321,129.837739 C303.664043,129.837739 300.082321,150.208783 300.082321,175.337739 C300.082321,200.466695 298.073345,191.172153 302.190125,194.837739 Z" id="Oval-6" stroke="#660303" stroke-width="2" fill="#C64444" transform="translate(318.822119, 174.448556) scale(-1, 1) rotate(44.000000) translate(-318.822119, -174.448556) "></path>
            <path d="M40.4649556,204.080217 C50.5727591,213.080217 56.206273,230.460576 59.357152,228.080217 C60.9732583,226.859315 70.9419626,229.287704 71.577735,226.827522 C71.9974898,225.203241 63.9281047,218.909153 62.4649556,217.080217 C61.2681701,215.584235 51.357152,203.698486 51.357152,195.080217 C51.357152,183.779445 60.556216,163.036499 59.357152,155.080217 C57.889918,145.344517 48.7884811,139.080217 46.357152,139.080217 C41.938874,139.080217 38.357152,159.451261 38.357152,184.580217 C38.357152,209.709173 36.3481755,200.414631 40.4649556,204.080217 Z" id="Oval-6" stroke="#660303" stroke-width="2" fill="#C64444" transform="translate(54.730287, 183.691034) rotate(21.000000) translate(-54.730287, -183.691034) "></path>
            <path d="M289.268916,210.940657 C299.37672,219.940657 305.010234,237.321016 308.161113,234.940657 C309.630996,233.830221 318.093794,235.30313 318.903256,233.132822 C319.571376,231.341479 312.932578,226.020233 311.268916,223.940657 C310.072131,222.444675 300.161113,210.558926 300.161113,201.940657 C300.161113,190.639885 309.360177,169.896939 308.161113,161.940657 C306.693879,152.204957 297.592442,145.940657 295.161113,145.940657 C290.742835,145.940657 287.161113,166.311701 287.161113,191.440657 C287.161113,216.569613 285.152136,207.275071 289.268916,210.940657 Z" id="Oval-6" stroke="#660303" stroke-width="2" fill="#C64444" transform="translate(302.810660, 190.551474) scale(-1, 1) rotate(31.000000) translate(-302.810660, -190.551474) "></path>
            <path d="M179,191 C255.125233,191 313.364979,167.488655 334,146 C338.515594,141.297604 347,144.156235 347,139 C347,129.130748 324.425878,111.860768 309,104 C279.537694,88.9865041 239.898561,87 179,87 C127.887995,87 99.8128869,88.8530535 69,100 C43.8781233,109.088153 11,126.101575 11,139 C11,143.25617 22.8836003,142.040771 26,146 C43.9117242,168.755942 99.9668667,191 179,191 Z" id="Oval" stroke="#660303" stroke-width="2" fill="#C64444"></path>
            <path d="M168,155 C187.214967,155 223.05639,158.112716 255,155 C277.228601,152.833954 297,147 310,143 C331.931536,136.251835 337,140.263728 337,133 C337,125.506519 307.052042,107.545235 270,100 C238.781775,93.6427572 196.941916,95 165.5,95 C137.857912,95 126.330822,97.0402368 102,103 C65.8081164,111.865095 19,126.743501 19,135 C19,139.551252 26.8478396,140.052513 41,143 C69.7812046,148.994296 121.905783,155 168,155 Z" id="Oval-3" fill="#D56262"></path>
            <path d="M268.597918,219 C278.705722,228 284.339236,245.380359 287.490115,243 C290.17322,240.973025 294.277195,236.599095 290.597918,232 C289.401133,230.504018 279.490115,218.618269 279.490115,210 C279.490115,198.699228 288.689179,177.956282 287.490115,170 C286.022881,160.2643 276.921444,154 274.490115,154 C270.071837,154 266.490115,174.371044 266.490115,199.5 C266.490115,224.628956 264.481138,215.334414 268.597918,219 Z" id="Oval-6" stroke="#660303" stroke-width="2" fill="#C64444" transform="translate(279.030098, 198.610817) scale(-1, 1) translate(-279.030098, -198.610817) "></path>
            <path d="M131,119 C137.075132,119 140,110.702549 140,98 C140,91.8560895 141.877162,80.125569 140,76 C137.996125,71.5959455 134.13674,72 131,72 C127.679855,72 125.016894,71.1370454 123,76 C121.326423,80.035179 125,92.2395718 125,98 C125,110.702549 124.924868,119 131,119 Z" id="Oval-2" stroke="#6A0303" stroke-width="2" fill="#C64444"></path>
            <path d="M131.218468,110.059211 C134.256034,110.059211 135.718468,103.524954 135.718468,93.5216743 C135.718468,88.683334 136.657049,79.4455286 135.718468,76.1966358 C134.71653,72.7284352 132.786838,73.0466288 131.218468,73.0466288 C129.558395,73.0466288 128.226915,72.3670505 127.218468,76.1966358 C126.381679,79.3743463 128.218468,88.985327 128.218468,93.5216743 C128.218468,103.524954 128.180901,110.059211 131.218468,110.059211 Z" id="Oval-2" fill="#D56262"></path>
            <path d="M209.436935,119.059211 C215.512067,119.059211 218.436935,109.351205 218.436935,94.4892405 C218.436935,87.3008737 220.314097,73.5761812 218.436935,68.7492713 C216.43306,63.5965337 212.573675,64.0692769 209.436935,64.0692769 C206.11679,64.0692769 203.45383,63.0596211 201.436935,68.7492713 C199.763358,73.470425 203.436935,87.7495475 203.436935,94.4892405 C203.436935,109.351205 203.361803,119.059211 209.436935,119.059211 Z" id="Oval-2" stroke="#660303" stroke-width="2" fill="#C64444"></path>
            <path d="M210.218468,105.059211 C213.256034,105.059211 214.718468,98.5249541 214.718468,88.5216743 C214.718468,83.683334 215.657049,74.4455286 214.718468,71.1966358 C213.71653,67.7284352 211.786838,68.0466288 210.218468,68.0466288 C208.558395,68.0466288 207.226915,67.3670505 206.218468,71.1966358 C205.381679,74.3743463 207.218468,83.985327 207.218468,88.5216743 C207.218468,98.5249541 207.180901,105.059211 210.218468,105.059211 Z" id="Oval-2" fill="#D56262"></path>
            <ellipse id="Oval-4" stroke="#000000" fill="#4A4A4A" cx="132" cy="71.5" rx="6" ry="6.5"></ellipse>
            <ellipse id="Oval-4" stroke="#000000" fill="#4A4A4A" cx="213" cy="65.5" rx="6" ry="6.5"></ellipse>
            <circle id="Oval-5" fill="#D8D8D8" cx="133.5" cy="70.5" r="2.5"></circle>
            <circle id="Oval-5" fill="#D8D8D8" cx="214.5" cy="64.5" r="2.5"></circle>
            <path d="M68.5979185,211 C78.705722,220 84.3392359,237.380359 87.4901149,235 C88.7015385,234.08482 96.0564241,238.676758 97,237 C98.1462903,234.963013 92.6159992,226.522601 90.5979185,224 C89.401133,222.504018 79.4901149,210.618269 79.4901149,202 C79.4901149,190.699228 88.6891789,169.956282 87.4901149,162 C86.0228809,152.2643 76.921444,146 74.4901149,146 C70.0718369,146 66.4901149,166.371044 66.4901149,191.5 C66.4901149,216.628956 64.4811385,207.334414 68.5979185,211 Z" id="Oval-6" stroke="#660303" stroke-width="2" fill="#C64444"></path>
            <path d="M78.5425897,123.461838 C91.7687423,133.952567 99.1402463,154.211749 103.2632,151.437116 C106.774067,149.0744 112.144156,143.975987 107.329789,138.615114 C105.763785,136.871342 92.7951276,123.016878 92.7951276,112.971109 C92.7951276,99.7985156 104.832186,75.6197786 103.2632,66.3456456 C101.343311,54.9973573 89.4339984,47.6954604 86.2525822,47.6954604 C80.4712254,47.6954604 75.7845096,71.4406943 75.7845096,100.731925 C75.7845096,130.023155 73.1557457,119.189097 78.5425897,123.461838 Z" id="Oval-6" stroke="#660303" stroke-width="2" fill="#C64444" transform="translate(92.193192, 99.695460) scale(-1, 1) rotate(200.000000) translate(-92.193192, -99.695460) "></path>
            <path d="M239.537279,124.399017 C254.889024,134.889746 263.445212,155.148928 268.230771,152.374295 C272.305874,150.011579 278.538997,144.913167 272.950907,139.552293 C271.133228,137.808522 256.080361,123.954057 256.080361,113.908288 C256.080361,100.735695 270.051911,76.5569578 268.230771,67.2828248 C266.002334,55.9345365 252.17906,48.6326395 248.486354,48.6326395 C241.775868,48.6326395 236.335944,72.3778734 236.335944,101.669104 C236.335944,130.960334 233.284708,120.126276 239.537279,124.399017 Z" id="Oval-6" stroke="#660303" stroke-width="2" fill="#C64444" transform="translate(255.381687, 100.632640) rotate(200.000000) translate(-255.381687, -100.632640) "></path>
            <path d="M86,68 C96.4934102,68 105,51.6583934 105,31.5 C105,25.5625599 98,18 98,25 C98,25.9674342 98.9068496,27.9952643 98,29 C96.7840085,30.3472466 93.6049775,30.6342765 93,31.5 C92.3088355,32.4890573 96.7840225,36.4753008 96,37.5 C94.8823635,38.9607249 91.0419253,39.6089492 90,41 C89.0008641,42.3339237 91.0161406,46.0866833 90,47 C87.9534686,48.8394416 84.6143668,48.0479278 83,47 C82.7364239,46.8289058 85.5696045,44.2358982 85,42 C84.5631665,40.2852744 80.581386,39.0868768 81,37.5 C81.3793097,36.0621174 87.4160696,34.6340716 88,33 C88.6396964,31.2098728 85.4518693,28.8931724 86,27 C86.5191022,25.2070882 90.3787546,23.7342103 91,22 C91.5008471,20.6018824 87.6588597,18.3090455 88,17 C88.2456946,16.0572049 92.6589404,15.8298405 93,15 C93.2418723,14.4114945 90.8525851,12.5458388 91,12 C91.9971173,8.30793482 93.5896327,7 93,7 C90.8714922,7 67,11.3416066 67,31.5 C67,51.6583934 75.5065898,68 86,68 Z" id="Oval-7" stroke="#660303" stroke-width="2" fill="#C64444"></path>
            <path d="M246.495092,59.3785466 C256.988502,59.3785466 265.495092,43.03694 265.495092,22.8785466 C265.495092,16.9411065 258.495092,9.37854664 258.495092,16.3785466 C258.495092,17.3459808 259.401942,19.3738109 258.495092,20.3785466 C257.279101,21.7257933 254.10007,22.0128232 253.495092,22.8785466 C252.803928,23.8676039 257.279115,27.8538475 256.495092,28.8785466 C255.377456,30.3392715 251.537017,30.9874959 250.495092,32.3785466 C249.495956,33.7124703 251.511233,37.4652299 250.495092,38.3785466 C248.448561,40.2179883 245.109459,39.4264745 243.495092,38.3785466 C243.231516,38.2074525 246.064697,35.6144449 245.495092,33.3785466 C245.058259,31.6638211 241.076478,30.4654235 241.495092,28.8785466 C241.874402,27.440664 247.911162,26.0126182 248.495092,24.3785466 C249.134789,22.5884195 245.946961,20.271719 246.495092,18.3785466 C247.014194,16.5856348 250.873847,15.1127569 251.495092,13.3785466 C251.995939,11.9804291 248.153952,9.68759216 248.495092,8.37854664 C248.740787,7.4357515 253.154033,7.20838713 253.495092,6.37854664 C253.736964,5.79004118 251.347677,3.92438546 251.495092,3.37854664 C252.492209,-0.313518542 254.084725,-1.62145336 253.495092,-1.62145336 C251.366584,-1.62145336 227.495092,2.72015327 227.495092,22.8785466 C227.495092,43.03694 236.001682,59.3785466 246.495092,59.3785466 Z" id="Oval-7" stroke="#660303" stroke-width="2" fill="#C64444" transform="translate(246.495092, 28.878547) scale(-1, 1) rotate(18.000000) translate(-246.495092, -28.878547) "></path>
        </g>
    </g>
</svg>