<?xml version="1.0" encoding="UTF-8"?>
<svg width="663px" height="101px" viewBox="0 0 663 101" version="1.1" xmlns="http://www.w3.org/2000/svg" xmlns:xlink="http://www.w3.org/1999/xlink">
    <!-- Generator: Sketch 47.1 (45422) - http://www.bohemiancoding.com/sketch -->
    <title>Artboard</title>
    <desc>Created with Sketch.</desc>
    <defs>
        <path d="M1,6 L22,12 L50,16 L96,16 L152,16 L196,0 L228,6 L241,12 L271,6 L332,12 L375,0 L424,12 L468,6 L500,12 L541,0 L582,6 C599.614583,2 613.28125,0 623,0 C632.71875,0 645.71875,2 662,6 L662,101 L358,101 L1,101 L1,6 Z" id="path-1"></path>
    </defs>
    <g id="Page-1" stroke="none" stroke-width="1" fill="none" fill-rule="evenodd">
        <g id="Rectangle">
            <use fill="#97693F" fill-rule="evenodd" xlink:href="#path-1"></use>
            <path stroke="#E9BB92" stroke-width="1" d="M1.5,6.66286499 L1.5,100.5 L661.5,100.5 L661.5,6.39224442 C645.432506,2.46324467 632.596335,0.5 623,0.5 C613.325456,0.5 599.692121,2.49512223 582.110723,6.48758625 L581.9276,6.49473053 L541.035648,0.510542342 L500.025538,12.5135014 L467.987384,6.50634768 L424.067557,12.4954151 L423.881066,12.4856487 L375.008263,0.51679903 L332.134399,12.4815982 L331.951056,12.4975987 L271.025101,6.50488181 L240.938351,12.5222318 L227.846838,6.47999527 L196.04231,0.5166463 L152.170872,16.4698967 L152,16.5 L96,16.5 L49.9292893,16.4949747 L21.8626394,12.480762 L1.5,6.66286499 Z"></path>
        </g>
        <g id="Artboard" stroke="#E9BB92" fill="#2A2424">
            <path d="M17.7077409,47 L5.17693523,77 L22.92891,62 L34.4154818,47 L52.1674566,47 L39.6366509,62 L39.6366509,77 L28.6721959,83 L17.7077409,91 L46.9462875,83 L52.1674566,77 L68.8751975,51 L91.8483412,47 L101.246445,51 L86.6271722,57 L97.0695103,57 L86.6271722,69 L78.2733017,69 L68.8751975,77 L91.8483412,77 L101.246445,69 L118.99842,69 L118.99842,57 L141.971564,51 L165.988942,62 L144.060032,61 L139.883096,70 L164.944708,70 L191.050553,65 L191.050553,53 L171.210111,52 L188.962085,47 L218.200632,47 L232.819905,58 L220.2891,63 L209.846761,70 L256.837283,58 L264.146919,55 L278.766193,60 L299.650869,51 L318.447077,51 L326.800948,60 L358.127962,48 L373.791469,54 L408.251185,62 L407.206951,70 L418.693523,60 L418.693523,50 L403.030016,49 L426.00316,42 L444.799368,45 L464.63981,53 L457.330174,39 L480.303318,50 L501.187994,44 L536.691943,35 L575.328594,41 C553.747762,44.3333333 542.609268,46 541.913112,46 C541.574269,46 549.231983,50 564.886256,58 L581.593997,60 L600.390205,39 L623.363349,58 L626.496051,45 L651.557662,43 L658.867299,44 L662,34 L651.557662,26 C630.672986,20.6666667 619.88257,18 619.186414,18 C618.490258,18 626.147973,22.6666667 642.159558,32 L623.363349,35 L575.328594,26 L544.00158,28 L541.913112,23 L581.593997,18 L600.390205,13 L581.593997,11 C567.670879,11 560.013165,11 558.620853,11 C556.532385,11 528.338073,15 527.293839,14 C526.249605,13 502.232227,23 501.187994,23 C500.491838,23 492.834123,22.6666667 478.21485,22 C469.164824,18.6666667 464.63981,16.6666667 464.63981,16 C464.63981,15.3333333 458.02633,19.3333333 444.799368,28 L424.958926,26 L414.516588,22 L408.251185,32 L389.454976,42 L370.658768,35 L339.331754,39 C331.674039,35.6666667 327.497104,34 326.800948,34 C326.104792,34 322.972091,34 317.402844,34 L299.650869,30 L283.987362,18 L290.252765,38 L273.545024,42 L250.57188,38 L232.819905,37 L212.979463,32 L204.625592,32 L179.563981,30 L196.271722,23 L179.563981,16 L163.900474,34 L172.254344,42 L153.458136,45 L124.219589,45 L149.281201,32 L109.600316,43 L80.3617694,41 L60.521327,46 L62.6097946,24 L52.1674566,41 L35.4597156,39 L9.35387046,35 L1,38 L1,57 L17.7077409,47 Z" id="Path"></path>
        </g>
        <path d="" id="Path-2" stroke="#979797"></path>
    </g>
</svg>