<?xml version="1.0" encoding="UTF-8"?>
<svg width="163px" height="145px" viewBox="0 0 163 145" version="1.1" xmlns="http://www.w3.org/2000/svg" xmlns:xlink="http://www.w3.org/1999/xlink">
    <!-- Generator: Sketch 47.1 (45422) - http://www.bohemiancoding.com/sketch -->
    <title>Artboard</title>
    <desc>Created with Sketch.</desc>
    <defs></defs>
    <g id="Page-1" stroke="none" stroke-width="1" fill="none" fill-rule="evenodd">
        <g id="Artboard">
            <circle id="Oval" fill="#97E9F2" cx="87.5" cy="77.5" r="48.5"></circle>
            <path d="M63.5,25.5 L67.5,33.5" id="Line" stroke="#979797" stroke-linecap="square"></path>
            <path d="M81.5,13.5 L83.5,31.5" id="Line-2" stroke="#979797" stroke-linecap="square"></path>
            <path d="M109.5,26.5 L106.5,32.5" id="Line-3" stroke="#979797" stroke-linecap="square"></path>
            <path d="M151.5,25.5 L124.5,45.5" id="Line-4" stroke="#979797" stroke-linecap="square"></path>
            <path d="M136.5,74.5 L144.5,76.5" id="Line-5" stroke="#979797" stroke-linecap="square"></path>
            <path d="M130.5,98.5 L161.5,123.5" id="Line-6" stroke="#979797" stroke-linecap="square"></path>
            <path d="M119.5,116.5 L124.5,124.5" id="Line-7" stroke="#979797" stroke-linecap="square"></path>
            <path d="M94.5,122.5 L97.5,148.5" id="Line-8" stroke="#979797" stroke-linecap="square"></path>
            <path d="M68.5,122.5 L59.5,132.5" id="Line-9" stroke="#979797" stroke-linecap="square"></path>
            <path d="M51.5,108.5 L17.5,127.5" id="Line-10" stroke="#979797" stroke-linecap="square"></path>
            <path d="M41.5,93.5 L24.5,95.5" id="Line-11" stroke="#979797" stroke-linecap="square"></path>
            <path d="M38.5,74.5 L5.5,68.5" id="Line-12" stroke="#979797" stroke-linecap="square"></path>
            <path d="M44.5,56.5 L26.5,48.5" id="Line-13" stroke="#979797" stroke-linecap="square"></path>
        </g>
        <path d="M38.5,24.5 L55.5,42.5" id="Line" stroke="#979797" stroke-linecap="square"></path>
    </g>
</svg>