<?xml version="1.0" encoding="UTF-8"?>
<svg width="628px" height="98px" viewBox="0 0 628 98" version="1.1" xmlns="http://www.w3.org/2000/svg" xmlns:xlink="http://www.w3.org/1999/xlink">
    <!-- Generator: Sketch 47.1 (45422) - http://www.bohemiancoding.com/sketch -->
    <title>Artboard 3</title>
    <desc>Created with Sketch.</desc>
    <defs></defs>
    <g id="Page-1" stroke="none" stroke-width="1" fill="none" fill-rule="evenodd">
        <g id="Artboard-3">
            <path d="M312.574223,103.042109 C450.884327,103.042109 585.951222,120.636935 628.964967,103.042109 C640.293791,98.4080392 628.964967,63.2068076 628.964967,58.0235968 C628.964967,40.2337642 654.453127,29.6017125 575.983263,27.0108441 C563.168601,26.5877377 521.253081,43.0714931 504.008117,42.0170148 C487.454955,41.0048381 419.19351,1.245648 400.044018,1.00014828 C396.670276,0.956896329 356.503829,10.3883651 349.061623,13.0050848 C335.609593,17.7348916 318.815426,13.0050848 312.574223,13.0050848 C228.188567,13.0050848 212.145682,26.5478599 152.129628,27.0108441 C125.053504,27.2197185 36.5256489,8.50317795 20.1751946,13.0050848 C-2.27871045,19.1875057 -3.81652055,34.5779711 -3.81652055,42.0170148 C-3.81652055,45.3794038 -8.72934931,99.8901199 -3.81652055,103.042109 C27.5983469,123.197364 161.467358,103.042109 312.574223,103.042109 Z" id="Oval-8" stroke="#D9A731" stroke-width="2" fill="#EECB7C"></path>
            <path d="M41.0027045,86 C65.3819697,86 250.717404,85.8219173 276.030338,76.965742 C289.715635,72.1777001 154.015992,60.3292888 154.015992,54.8820003 C154.015992,46.2449026 124.844006,49.999769 110.010818,44.8439359 C98.1853823,40.7335603 102.66905,26.7754199 86.007996,26.7754199 C64.8843747,26.7754199 40.4749017,20.5307251 28.0011759,26.7754199 C18.2954477,31.6343779 18,48.089208 18,54.8820003 C18,62.4753928 57.1656204,49.8241806 69.005997,54.8820003 C81.3703774,60.1636572 21.816253,86 41.0027045,86 Z" id="Oval" fill="#FFDA87"></path>
            <path d="M353.896406,89.0989003 C367.880997,89.0989003 511.704249,91.7208068 561.75828,89.0989003 C598.894982,87.1536233 544.989283,80.6386295 555.762265,76.8884354 C565.538065,73.4853712 442.58343,70.8353721 403.863203,65.1472326 C388.42074,62.8786798 433.843281,56.4768252 433.843281,54.9327401 C433.843281,46.3457221 404.694094,50.078817 389.8725,44.9528786 C381.012898,41.8888511 419.168841,27.3277292 412.857226,23.2318142 C410.750938,21.8649415 370.054029,26.9891278 365.888437,26.9891278 C344.781325,26.9891278 344.374992,28.9991614 331.911015,35.2076481 C327.282476,37.5131902 296.084452,21.4808565 270.951523,23.2318142 C243.423619,25.1496249 198,36.6673058 198,40.1975788 C198,47.7469432 337.068604,49.9042468 348.899726,54.9327401 C355.207594,57.6137257 336.037493,69.691833 324.915664,76.8884354 C318.939311,80.7555543 268.740283,83.6427021 283.94289,89.0989003 C295.861219,93.3763746 349.772943,89.0989003 353.896406,89.0989003 Z" id="Oval" fill="#FFDB89"></path>
            <path d="M606.032153,78 C611.614509,78 592.029688,59.9413128 594.061833,56 C598.848421,46.71649 619,46.1322989 619,44 C619,40.9624339 591.845011,34 573.113773,34 C564.489473,34 527.227077,44.3360323 521.242386,50 C514.228843,56.6376831 539.197866,58.8610004 539.197866,60.5 C539.197866,61.6457048 559.970576,57.4926897 569.5,60.5 C585.235596,65.4658637 594.365936,78 606.032153,78 Z" id="Oval-2" fill="#FFDB88"></path>
        </g>
    </g>
</svg>