<?xml version="1.0" encoding="UTF-8"?>
<svg width="492px" height="441px" viewBox="0 0 492 441" version="1.1" xmlns="http://www.w3.org/2000/svg" xmlns:xlink="http://www.w3.org/1999/xlink">
    <!-- Generator: Sketch 47.1 (45422) - http://www.bohemiancoding.com/sketch -->
    <title>Artboard 2</title>
    <desc>Created with Sketch.</desc>
    <defs>
        <circle id="path-1" cx="243" cy="216" r="153"></circle>
    </defs>
    <g id="Page-1" stroke="none" stroke-width="1" fill="none" fill-rule="evenodd">
        <g id="Artboard-2" fill-rule="nonzero">
            <g id="Group">
                <polygon id="Shape" fill="#F5A623" points="85 55 149.3086 100.82812 129.10938 121.89062"></polygon>
                <polygon id="Shape" fill="#F5A623" points="153.00391 19 200.07422 72.41797 173.08985 84.0039"></polygon>
                <polygon id="Shape" fill="#F5A623" points="244 0 257.42578 66.68359 228.22266 66.64843"></polygon>
                <polygon id="Shape" fill="#F5A623" points="323 23 312.63672 83.85547 285.55469 72.45312"></polygon>
                <polygon id="Shape" fill="#F5A623" points="408 61 356.85157 121.66797 336.54297 100.6289"></polygon>
                <polygon id="Shape" fill="#F5A623" points="243 440.615235 257.38672 365.3125 228.24219 365.23047"></polygon>
                <polygon id="Shape" fill="#F5A623" points="153.017585 419 200.10157 359.55859 173.125 348.05469"></polygon>
                <polygon id="Shape" fill="#F5A623" points="27 308 112.41016 286.23047 101 259.17187"></polygon>
                <polygon id="Shape" fill="#F5A623" points="347 432.023435 312.41016 348.04687 285.59375 359.69531"></polygon>
                <polygon id="Shape" fill="#F5A623" points="356.75391 310.39062 336.66407 331.59375 406 377"></polygon>
                <polygon id="Shape" fill="#F5A623" points="457 123 384.80079 172.85937 373.86719 145.48047"></polygon>
                <polygon id="Shape" fill="#F5A623" points="492 220 390.67579 230.73828 390.94141 201.27734"></polygon>
                <polygon id="Shape" fill="#F5A623" points="459 298 378 298 388 261"></polygon>
                <polygon id="Shape" fill="#F5A623" points="34 129.49414 101.10938 173.05078 112.5 145.96094"></polygon>
                <polygon id="Shape" fill="#F5A623" points="0 213 95.05078 230.69922 95.00391 201.33594"></polygon>
                <polygon id="Shape" fill="#F5A623" points="73 375 149.41016 335.0586 138 308"></polygon>
                <g id="Oval">
                    <use fill="#F8E71C" fill-rule="evenodd" xlink:href="#path-1"></use>
                    <circle stroke="#FFFFFF" stroke-width="10" cx="243" cy="216" r="158"></circle>
                </g>
            </g>
        </g>
    </g>
</svg>